<?xml version="1.0" standalone="no"?>
<!DOCTYPE svg PUBLIC "-//W3C//DTD SVG 1.1//EN" "http://www.w3.org/Graphics/SVG/1.1/DTD/svg11.dtd" >
<svg xmlns="http://www.w3.org/2000/svg">
<metadata></metadata>
<defs>
<font id="galanogrotesquealuploadedfile" horiz-adv-x="1626" >
<font-face units-per-em="2048" ascent="1550" descent="-498" />
<missing-glyph horiz-adv-x="505" />
<glyph unicode="&#xfb01;" horiz-adv-x="1294" d="M41 840v176h166v213q0 170 103 269q104 99 276 99q102 0 184 -43l-49 -172q-64 25 -121 25q-83 0 -132 -47q-48 -46 -48 -131v-213h698v-1016h-213v840h-485v-840h-213v840h-166zM874 1321q0 55 39 94t99 39q57 0 96 -39t39 -94q0 -56 -38 -94q-37 -37 -97 -37 q-61 0 -99 37q-39 38 -39 94z" />
<glyph unicode="&#xfb02;" horiz-adv-x="1400" d="M41 840v176h166v213q0 170 102 269t273 99q93 0 174 -36l-51 -175q-53 21 -109 21q-79 0 -128 -47q-48 -46 -48 -131v-213h338v-176h-338v-840h-213v840h-166zM885 279v1298h213v-1286q0 -53 37 -86q38 -33 94 -33q53 0 123 31l41 -178q-102 -54 -201 -54q-139 0 -223 84 t-84 224z" />
<glyph horiz-adv-x="0" />
<glyph unicode="&#xd;" horiz-adv-x="681" />
<glyph unicode=" "  horiz-adv-x="505" />
<glyph unicode="&#x09;" horiz-adv-x="505" />
<glyph unicode="&#xa0;" horiz-adv-x="505" />
<glyph unicode="!" horiz-adv-x="571" d="M152 123q0 54 37 91q38 38 96 38q56 0 96 -38q39 -38 39 -91q0 -55 -39 -93q-40 -38 -96 -38q-58 0 -96 38q-37 37 -37 93zM170 1309v63h233v-63l-8 -881h-217z" />
<glyph unicode="&#x22;" horiz-adv-x="780" d="M109 782v590h215v-590h-215zM457 782v590h215v-590h-215z" />
<glyph unicode="#" horiz-adv-x="1404" d="M47 332l49 178h213l80 321h-217l47 179h215l90 362h191l-90 -362h323l90 362h189l-90 -362h219l-51 -179h-213l-80 -321h219l-49 -178h-215l-82 -332h-191l84 332h-323l-82 -332h-191l82 332h-217zM500 510h321l82 321h-323z" />
<glyph unicode="$" horiz-adv-x="1218" d="M98 432l217 43q15 -206 217 -258v395l-73 17q-144 28 -235 108q-93 83 -93 232q0 157 108 259t285 120v229h183v-234q167 -27 272 -130q105 -104 117 -259l-213 -39q-1 92 -54 157q-51 63 -129 87v-379l82 -16q330 -73 330 -350q0 -164 -112 -270q-111 -105 -293 -121 v-228h-183v236q-175 27 -294 133q-120 107 -132 268zM352 981q0 -122 158 -160l22 -4v350q-84 -17 -132 -66t-48 -120zM700 209q95 15 150 67t55 129q0 129 -176 164l-29 6v-366z" />
<glyph unicode="%" horiz-adv-x="1720" d="M92 1071q0 147 99 239q98 91 241 91t241 -91q99 -92 99 -239q0 -143 -99 -235q-101 -93 -241 -93t-241 93q-99 92 -99 235zM254 1073q0 -82 53 -132t125 -50t125 50t53 132q0 80 -53 130q-55 50 -125 50q-72 0 -125 -50t-53 -130zM270 0l1016 1372h146l-1016 -1372h-146z M948 301q0 145 100 237q98 91 240 91q143 0 241 -91q99 -92 99 -237q0 -147 -99 -238q-100 -92 -241 -92q-140 0 -240 92t-100 238zM1110 301q0 -80 53 -130t125 -50t125 50t53 130q0 82 -53 132q-55 50 -125 50q-72 0 -125 -50t-53 -132z" />
<glyph unicode="&#x26;" horiz-adv-x="1445" d="M117 393q0 234 248 359q-107 131 -107 280q0 164 118 266q120 103 298 103t288 -102t132 -275l-201 -37q-21 234 -219 234q-91 0 -152 -52q-59 -50 -59 -141q0 -80 52 -151q54 -74 187 -185l324 -278q33 88 33 194v99h190v-99q0 -180 -69 -325l219 -189l-125 -143 l-207 178q-170 -158 -424 -158q-237 0 -382 116q-144 115 -144 306zM326 393q0 -109 87 -175t230 -66q161 0 277 104l-385 332l-43 37q-166 -84 -166 -232z" />
<glyph unicode="'" horiz-adv-x="432" d="M109 782v590h215v-590h-215z" />
<glyph unicode="(" horiz-adv-x="735" d="M98 686q0 499 391 856l150 -133q-173 -175 -242 -345q-69 -171 -69 -378q0 -208 69 -377q69 -170 242 -346l-150 -131q-391 354 -391 854z" />
<glyph unicode=")" horiz-adv-x="735" d="M98 -37q173 176 242 346q70 172 70 377t-70 378q-69 170 -242 345l150 133q391 -357 391 -856q0 -500 -391 -854z" />
<glyph unicode="*" horiz-adv-x="894" d="M80 969l233 135l-233 135l65 117l228 -131v250h149v-250l228 131l65 -117l-233 -135l233 -135l-65 -115l-228 131v-252h-149v252l-228 -131z" />
<glyph unicode="+" horiz-adv-x="1187" d="M133 530v189h367v373h188v-373h367v-189h-367v-372h-188v372h-367z" />
<glyph unicode="," horiz-adv-x="473" d="M27 -270l129 544h247v-6l-215 -538h-161z" />
<glyph unicode="-" horiz-adv-x="913" d="M123 430v184h668v-184h-668z" />
<glyph unicode="." horiz-adv-x="452" d="M92 123q0 53 39 91q40 38 96 38q58 0 96 -38q37 -37 37 -91q0 -56 -37 -93q-38 -38 -96 -38q-56 0 -96 38q-39 38 -39 93z" />
<glyph unicode="/" horiz-adv-x="804" d="M18 -147l590 1665h178l-589 -1665h-179z" />
<glyph unicode="0" horiz-adv-x="1363" d="M102 686q0 318 160 517q159 198 420 198t420 -198q160 -199 160 -517t-160 -517q-159 -198 -420 -198t-420 198q-160 199 -160 517zM326 686q0 -231 97 -371q97 -141 259 -141t259 141q97 140 97 371t-97 371q-97 141 -259 141t-259 -141q-97 -140 -97 -371z" />
<glyph unicode="1" horiz-adv-x="743" d="M10 924v198l430 250h135v-1372h-213v1112z" />
<glyph unicode="2" horiz-adv-x="1062" d="M49 963q7 200 137 319t336 119q205 0 332 -118t127 -306q0 -138 -71 -250t-238 -270l-271 -258h592v-199h-927v141l475 459q84 80 90 86q25 25 67 78q43 54 57 100q15 49 15 109q0 105 -70 172q-68 65 -180 65q-121 0 -191 -73q-72 -75 -79 -215z" />
<glyph unicode="3" horiz-adv-x="1183" d="M98 412l207 41q15 -137 90 -212q77 -77 207 -77q124 0 200 64q77 65 77 169q0 97 -68 154q-67 57 -188 57h-148v176h135q111 0 178 56q66 56 66 147q0 100 -70 161q-69 60 -184 60q-120 0 -197 -72q-76 -72 -84 -212l-202 41q16 193 147 315q130 121 336 121 q204 0 331 -115q126 -114 126 -299q0 -102 -47 -179q-47 -78 -131 -112q95 -34 147 -111q53 -77 53 -186q0 -191 -132 -310q-131 -118 -345 -118t-350 121q-138 122 -154 320z" />
<glyph unicode="4" horiz-adv-x="1265" d="M57 303v205l672 864h287v-889h192v-180h-192v-303h-215v303h-744zM299 483h502v668z" />
<glyph unicode="5" horiz-adv-x="1161" d="M78 444l213 41q0 -153 82 -234q83 -81 213 -81q124 0 201 71t77 187q0 108 -72 171t-194 63h-444l26 710h836v-198h-633l-14 -316h245q209 0 335 -114t126 -312q0 -206 -136 -333q-137 -128 -359 -128q-215 0 -359 126q-143 125 -143 347z" />
<glyph unicode="6" horiz-adv-x="1249" d="M102 657q0 400 187 590q151 154 373 154q167 0 288 -82q122 -83 162 -232l-211 -40q-49 161 -248 161q-132 0 -223 -98q-128 -139 -121 -395q62 82 158 127q100 47 207 47q218 0 345 -126q128 -126 128 -327q0 -203 -137 -334t-355 -131q-255 0 -404 182t-149 504z M373 434q0 -114 82 -190t194 -76q116 0 198 77q81 76 81 193q0 116 -81 193q-80 76 -198 76q-116 0 -196 -78t-80 -195z" />
<glyph unicode="7" horiz-adv-x="1021" d="M39 1174v198h944v-155l-504 -1217h-241l505 1174h-704z" />
<glyph unicode="8" horiz-adv-x="1171" d="M74 367q0 111 71 200q73 91 205 131q-116 44 -175 130q-60 87 -60 202q0 166 130 268q132 103 343 103q210 0 340 -103q129 -102 129 -268q0 -112 -60 -201q-59 -87 -174 -131q133 -40 204 -131t71 -200q0 -176 -142 -286t-368 -110q-229 0 -372 110q-142 109 -142 286z M317 377q0 -103 75 -161q74 -58 192 -58q117 0 195 59q79 60 79 164q0 100 -77 160q-75 59 -195 59t-194 -59q-75 -60 -75 -164zM332 1012q0 -96 69 -152q68 -55 183 -55q113 0 185 57q73 58 73 154q0 93 -74 150t-182 57q-111 0 -183 -57q-71 -56 -71 -154z" />
<glyph unicode="9" horiz-adv-x="1249" d="M102 936q0 202 138 334q137 131 356 131q256 0 403 -181q148 -183 148 -505q0 -400 -184 -590q-151 -154 -373 -154q-171 0 -290 82q-120 82 -163 232l211 41q51 -160 250 -160q131 0 221 96q129 140 121 397q-58 -81 -155 -127q-99 -47 -207 -47q-218 0 -347 126 t-129 325zM322 934q0 -116 80 -192t198 -76q120 0 198 77q79 78 79 195q0 116 -81 191t-196 75q-117 0 -198 -78q-80 -77 -80 -192z" />
<glyph unicode=":" horiz-adv-x="452" d="M92 123q0 53 39 91q40 38 96 38q58 0 96 -38q37 -37 37 -91q0 -56 -37 -93q-38 -38 -96 -38q-56 0 -96 38q-39 38 -39 93zM92 840q0 54 39 91q40 38 96 38q58 0 96 -38q37 -37 37 -91q0 -55 -37 -92t-96 -37q-58 0 -96 37q-39 38 -39 92z" />
<glyph unicode=";" horiz-adv-x="514" d="M27 -270l129 544h247v-6l-215 -538h-161zM154 840q0 54 37 91q38 38 96 38q56 0 96 -38q39 -37 39 -91t-39 -92q-38 -37 -96 -37q-59 0 -96 37t-37 92z" />
<glyph unicode="&#x3c;" horiz-adv-x="907" d="M66 549v221l763 311v-227l-512 -192l512 -197v-223z" />
<glyph unicode="=" horiz-adv-x="1187" d="M133 365v186h922v-186h-922zM133 760v186h922v-186h-922z" />
<glyph unicode="&#x3e;" horiz-adv-x="907" d="M82 242v223l512 197l-512 192v227l764 -311v-221z" />
<glyph unicode="?" horiz-adv-x="1081" d="M68 971q11 181 146 305q137 125 343 125q210 0 337 -121q128 -122 128 -315q0 -160 -109 -267t-286 -125v-135h-197v299h123q113 0 188 64q74 63 74 164q0 108 -72 177q-71 68 -186 68q-121 0 -196 -75q-76 -76 -91 -203zM391 123q0 53 39 91q40 38 96 38q58 0 96 -38 q37 -37 37 -91q0 -56 -37 -93q-38 -38 -96 -38q-56 0 -96 38q-39 38 -39 93z" />
<glyph unicode="@" horiz-adv-x="1947" d="M119 563q0 361 247 599q248 239 617 239q353 0 601 -221q247 -220 247 -555q0 -123 -33 -231q-33 -107 -118 -186t-210 -79q-186 0 -239 141q-102 -135 -299 -135q-176 0 -294 117t-118 305q0 191 119 310q118 118 293 118q177 0 285 -125v109h141v-592q0 -55 38 -88 t95 -33q98 0 148 109q51 111 51 249q0 289 -204 475q-203 185 -503 185q-310 0 -518 -202q-207 -201 -207 -507q0 -304 205 -505t498 -201q282 0 495 155l72 -112q-105 -81 -259 -128q-151 -46 -304 -46q-354 0 -600 237t-246 598zM686 559q0 -128 79 -204t187 -76 q110 0 187 76q78 77 78 204q0 125 -78 202q-79 77 -187 77q-111 0 -188 -76q-78 -76 -78 -203z" />
<glyph unicode="A" horiz-adv-x="1433" d="M10 0l604 1372h205l604 -1372h-237l-135 319h-668l-135 -319h-238zM469 520h496l-248 584z" />
<glyph unicode="B" horiz-adv-x="1359" d="M162 0v1372h653q187 0 297 -101q111 -102 111 -270q0 -119 -67 -200q-66 -79 -150 -94v-9q105 -12 182 -98q76 -85 76 -223q0 -172 -112 -275q-111 -102 -323 -102h-667zM381 188h426q107 0 170 58q61 57 61 151q0 93 -62 149t-163 56h-432v-414zM381 778h410 q97 0 158 59t61 152q0 85 -61 140t-156 55h-412v-406z" />
<glyph unicode="C" horiz-adv-x="1576" d="M98 686q0 299 208 507t507 208q244 0 426 -133q183 -133 240 -359l-213 -61q-45 170 -166 258t-287 88q-209 0 -351 -146q-143 -148 -143 -362q0 -213 143 -361q142 -147 351 -147q166 0 287 88t166 258l213 -45q-56 -239 -238 -373q-183 -135 -428 -135q-299 0 -507 207 t-208 508z" />
<glyph unicode="D" horiz-adv-x="1495" d="M162 0v1372h479q348 0 552 -191q206 -192 206 -495t-206 -495q-204 -191 -552 -191h-479zM381 199h260q245 0 391 135t146 352t-146 352q-147 136 -391 136h-260v-975z" />
<glyph unicode="E" horiz-adv-x="1302" d="M162 0v1372h1020v-198h-801v-388h739v-196h-739v-391h803v-199h-1022z" />
<glyph unicode="F" horiz-adv-x="1214" d="M162 0v1372h1003v-198h-784v-408h709v-199h-709v-567h-219z" />
<glyph unicode="G" horiz-adv-x="1609" d="M98 686q0 298 207 507q207 208 508 208q225 0 404 -107q176 -105 249 -299l-198 -69q-130 268 -455 268q-207 0 -349 -146t-142 -362q0 -217 145 -362q146 -146 358 -146q186 0 314 110q127 109 157 290h-544v200h755q4 -65 4 -94q0 -306 -194 -509q-195 -204 -498 -204 t-512 207t-209 508z" />
<glyph unicode="H" horiz-adv-x="1503" d="M162 0v1372h219v-581h741v581h219v-1372h-219v590h-741v-590h-219z" />
<glyph unicode="I" horiz-adv-x="917" d="M47 0v199h301v975h-301v198h823v-198h-301v-975h301v-199h-823z" />
<glyph unicode="J" horiz-adv-x="1220" d="M39 418l209 43q18 -132 97 -211q80 -80 208 -80q133 0 216 90q83 91 83 232v682h-467v198h688v-880q0 -230 -144 -375q-144 -146 -376 -146q-210 0 -347 122t-167 325z" />
<glyph unicode="K" horiz-adv-x="1445" d="M162 0v1372h219v-819l725 819h252l-520 -586l594 -786h-275l-465 621l-311 -351v-270h-219z" />
<glyph unicode="L" horiz-adv-x="1206" d="M162 0v1372h219v-1173h749v-199h-968z" />
<glyph unicode="M" horiz-adv-x="1826" d="M162 0v1372h192l559 -1038l562 1038h190v-1372h-213v877l-471 -877h-135l-471 877v-877h-213z" />
<glyph unicode="N" horiz-adv-x="1558" d="M162 0v1372h186l828 -1001v1001h221v-1372h-187l-829 985v-985h-219z" />
<glyph unicode="O" d="M98 684q0 300 207 509q207 208 508 208q300 0 509 -209q208 -208 208 -508q0 -299 -208 -506t-509 -207t-508 207t-207 506zM319 684q0 -214 143 -360t351 -146t352 146t144 360q0 217 -144 364q-143 146 -352 146t-351 -146q-143 -148 -143 -364z" />
<glyph unicode="P" horiz-adv-x="1347" d="M162 0v1372h618q226 0 360 -122t134 -320q0 -201 -134 -324q-133 -123 -360 -123h-399v-483h-219zM381 684h399q126 0 201 67q74 66 74 179q0 108 -74 176t-201 68h-399v-490z" />
<glyph unicode="Q" d="M98 684q0 300 207 509q207 208 508 208q300 0 509 -209q208 -208 208 -508q0 -176 -78 -328q-78 -151 -213 -247l363 -457h-306l-274 350q-102 -31 -209 -31q-301 0 -508 207t-207 506zM319 684q0 -214 143 -360t351 -146t352 146t144 360q0 217 -144 364 q-143 146 -352 146t-351 -146q-143 -148 -143 -364z" />
<glyph unicode="R" horiz-adv-x="1376" d="M162 0v1372h645q211 0 341 -114t130 -300q0 -176 -118 -287q-119 -112 -314 -122l495 -549h-272l-489 547h-199v-547h-219zM381 745h426q112 0 182 59t70 154t-70 156q-69 60 -182 60h-426v-429z" />
<glyph unicode="S" horiz-adv-x="1298" d="M98 379l234 49q24 -130 119 -196t235 -66q136 0 212 58q77 59 77 155q0 78 -44 119q-43 40 -149 63l-299 62q-346 79 -346 372q0 183 138 294q139 112 366 112q207 0 349 -105q142 -104 179 -282l-219 -45q-18 109 -104 175t-209 66q-122 0 -195 -58t-73 -151 q0 -71 42 -112q44 -42 132 -60l297 -63q352 -78 352 -375q0 -192 -144 -306t-382 -114q-228 0 -385 108q-159 109 -183 300z" />
<glyph unicode="T" horiz-adv-x="1280" d="M47 1174v198h1186v-198h-483v-1174h-222v1174h-481z" />
<glyph unicode="U" horiz-adv-x="1466" d="M147 606v766h220v-766q0 -193 102 -308q102 -116 270 -116q162 0 261 117q100 118 100 307v766h219v-766q0 -283 -160 -460q-159 -175 -420 -175q-266 0 -429 175t-163 460z" />
<glyph unicode="V" horiz-adv-x="1458" d="M29 1372h241l459 -1075l459 1075h244l-596 -1372h-211z" />
<glyph unicode="W" horiz-adv-x="1961" d="M29 1372h229l301 -1034l315 1034h211l316 -1034l301 1034h231l-411 -1372h-234l-307 1020l-309 -1020h-234z" />
<glyph unicode="X" horiz-adv-x="1325" d="M29 0l467 688l-463 684h268l363 -538l360 538h268l-465 -684l469 -688h-268l-364 545l-367 -545h-268z" />
<glyph unicode="Y" horiz-adv-x="1394" d="M29 1372h243l422 -688l420 688h252l-563 -913v-459h-219v455z" />
<glyph unicode="Z" horiz-adv-x="1280" d="M109 0v141l786 1043h-764v188h1045v-164l-756 -1020h766v-188h-1077z" />
<glyph unicode="[" horiz-adv-x="815" d="M162 -168v1686h557v-185h-350v-1317h350v-184h-557z" />
<glyph unicode="\" horiz-adv-x="804" d="M18 1518h179l589 -1665h-178z" />
<glyph unicode="]" horiz-adv-x="815" d="M98 16h351v1317h-351v185h555v-1686h-555v184z" />
<glyph unicode="^" horiz-adv-x="858" d="M47 909l307 463h152l307 -463h-190l-193 287l-194 -287h-189z" />
<glyph unicode="_" horiz-adv-x="1071" d="M41 -115h989v-178h-989v178z" />
<glyph unicode="`" horiz-adv-x="1228" d="M322 1452h249l150 -291h-184z" />
<glyph unicode="a" horiz-adv-x="1118" d="M74 293q0 145 107 233t300 88h318v31q0 99 -60 156t-157 57q-213 0 -248 -176l-203 43q27 143 148 231t290 88q200 0 316 -100t116 -282v-662h-202v117q-131 -146 -346 -146q-169 0 -275 89q-104 88 -104 233zM279 297q0 -71 56 -112q57 -42 150 -42q130 0 222 80t92 195 v33h-322q-93 0 -145 -42q-53 -42 -53 -112z" />
<glyph unicode="b" horiz-adv-x="1320" d="M162 0v1577h213v-686q137 153 368 153q205 0 355 -151q149 -150 149 -385q0 -237 -148 -386q-149 -151 -356 -151q-232 0 -368 154v-125h-213zM375 508q0 -154 100 -251t234 -97q142 0 237 95q94 94 94 253t-94 253q-95 95 -237 95q-134 0 -234 -97t-100 -251z" />
<glyph unicode="c" horiz-adv-x="1181" d="M74 508q0 234 156 385q155 151 380 151q175 0 311 -97q135 -97 185 -259l-205 -59q-29 109 -106 164t-185 55q-141 0 -234 -95t-93 -245q0 -153 92 -247q91 -93 235 -93q104 0 184 54q77 52 115 159l197 -51q-43 -161 -180 -260q-136 -99 -316 -99q-223 0 -380 151 q-156 150 -156 386z" />
<glyph unicode="d" horiz-adv-x="1320" d="M74 508q0 235 149 385q150 151 355 151q232 0 368 -153v686h215v-1577h-215v125q-136 -154 -368 -154q-205 0 -355 152q-149 150 -149 385zM283 508q0 -159 94 -253q95 -95 235 -95q134 0 234 96t100 252q0 154 -100 251t-234 97q-140 0 -235 -96q-94 -95 -94 -252z" />
<glyph unicode="e" horiz-adv-x="1181" d="M74 506q0 239 152 388q153 150 374 150q206 0 353 -144t155 -370v-73h-823q15 -138 102 -219q88 -82 205 -82q210 0 299 176l190 -41q-62 -158 -189 -239q-128 -81 -300 -81q-213 0 -366 150q-152 149 -152 385zM291 608h598q-24 121 -103 185q-78 63 -186 63t-197 -65 q-89 -66 -112 -183z" />
<glyph unicode="f" horiz-adv-x="743" d="M41 840v176h166v213q0 170 102 269t273 99q93 0 174 -36l-51 -175q-53 21 -109 21q-79 0 -128 -47q-48 -46 -48 -131v-213h338v-176h-338v-840h-213v840h-166z" />
<glyph unicode="g" horiz-adv-x="1320" d="M74 508q0 235 149 385q150 151 355 151q232 0 368 -153v125h215v-1049q-2 -221 -157 -350q-156 -129 -398 -129q-359 0 -495 244l176 143q57 -91 131 -135q73 -43 188 -43q148 0 244 81t96 220v127q-136 -154 -368 -154q-205 0 -355 152q-149 150 -149 385zM283 508 q0 -159 94 -253q95 -95 235 -95q134 0 234 96t100 252q0 154 -100 251t-234 97q-140 0 -235 -96q-94 -95 -94 -252z" />
<glyph unicode="h" horiz-adv-x="1271" d="M162 0v1577h213v-686q129 153 352 153q183 0 295 -119q113 -121 113 -311v-614h-215v571q0 123 -67 201q-66 76 -175 76q-141 0 -222 -96t-81 -283v-469h-213z" />
<glyph unicode="i" horiz-adv-x="567" d="M147 1321q0 55 39 94t99 39q57 0 96 -39t39 -94q0 -56 -38 -94q-37 -37 -97 -37q-61 0 -99 37q-39 37 -39 94zM178 0v1016h213v-1016h-213z" />
<glyph unicode="j" horiz-adv-x="595" d="M-43 -475l41 186q54 -22 96 -22q52 0 83 28q32 29 32 74v1225h213v-1254q0 -122 -76 -198t-201 -76q-98 0 -188 37zM176 1321q0 55 39 94t96 39t98 -39q40 -39 40 -94q0 -57 -39 -94q-38 -37 -99 -37q-60 0 -97 37q-38 38 -38 94z" />
<glyph unicode="k" horiz-adv-x="1245" d="M162 0v1577h213v-1081l497 520h250l-399 -432l512 -584h-268l-385 432l-207 -223v-209h-213z" />
<glyph unicode="l" horiz-adv-x="655" d="M141 279v1298h213v-1286q0 -53 37 -86t94 -33q53 0 123 31l41 -178q-102 -54 -200 -54q-137 0 -223 84q-85 84 -85 224z" />
<glyph unicode="m" horiz-adv-x="1941" d="M162 0v1016h213v-115q116 143 325 143q112 0 200 -49q89 -50 138 -137q134 186 379 186q164 0 274 -110q111 -111 111 -287v-647h-211v604q0 112 -64 177q-65 67 -165 67q-128 0 -201 -88q-74 -89 -74 -256v-504h-213v604q0 112 -64 177q-65 67 -165 67q-126 0 -198 -88 t-72 -256v-504h-213z" />
<glyph unicode="n" horiz-adv-x="1269" d="M162 0v1016h213v-125q129 153 352 153q183 0 295 -119q113 -121 113 -311v-614h-215v571q0 123 -67 201q-66 76 -175 76q-141 0 -222 -96t-81 -283v-469h-213z" />
<glyph unicode="o" horiz-adv-x="1239" d="M74 508q0 234 158 382t389 148t386 -148q156 -148 156 -382q0 -233 -157 -383q-158 -150 -385 -150q-230 0 -389 150q-158 149 -158 383zM283 508q0 -154 99 -251q98 -97 239 -97q135 0 235 97t100 251t-100 251t-235 97q-141 0 -239 -97q-99 -97 -99 -251z" />
<glyph unicode="p" horiz-adv-x="1320" d="M162 -492v1508h213v-125q137 153 368 153q205 0 355 -151q149 -150 149 -385q0 -237 -148 -386q-149 -151 -356 -151q-232 0 -368 154v-617h-213zM375 508q0 -154 100 -251t234 -97q142 0 237 95q94 94 94 253t-94 253q-95 95 -237 95q-134 0 -234 -97t-100 -251z" />
<glyph unicode="q" horiz-adv-x="1320" d="M74 508q0 235 149 385q150 151 355 151q232 0 368 -153v125h215v-1508h-215v617q-136 -154 -368 -154q-205 0 -355 152q-149 150 -149 385zM283 508q0 -159 94 -253q95 -95 235 -95q134 0 234 96t100 252q0 154 -100 251t-234 97q-140 0 -235 -96q-94 -95 -94 -252z" />
<glyph unicode="r" horiz-adv-x="860" d="M162 0v1016h213v-217q139 229 387 229q43 0 72 -8l-15 -205q-22 2 -59 2q-188 0 -287 -122q-98 -120 -98 -337v-358h-213z" />
<glyph unicode="s" horiz-adv-x="1032" d="M76 272l213 45q11 -86 79 -129t175 -43q93 0 146 37q54 38 54 99q0 90 -137 120l-221 45q-276 62 -276 277q0 144 109 232q110 89 292 89q173 0 286 -80t142 -212l-203 -43q-12 75 -73 120q-62 45 -158 45q-88 0 -134 -37t-46 -96q0 -86 122 -114l242 -54 q127 -28 195 -97q69 -70 69 -177q0 -157 -116 -242q-118 -86 -312 -86q-180 0 -305 77t-143 224z" />
<glyph unicode="t" horiz-adv-x="847" d="M0 840v176h219v356h213v-356h348v-176h-348v-480q0 -92 45 -140t123 -48q89 0 172 55l66 -178q-130 -78 -252 -78q-168 0 -269 96q-98 94 -98 279v494h-219z" />
<glyph unicode="u" horiz-adv-x="1269" d="M137 403v613h213v-570q0 -123 67 -201q66 -77 177 -77q142 0 221 96q80 97 80 283v469h213v-1016h-213v125q-130 -154 -350 -154q-185 0 -296 120q-112 121 -112 312z" />
<glyph unicode="v" horiz-adv-x="1157" d="M29 1018h231l320 -764l319 764h231l-438 -1018h-227z" />
<glyph unicode="w" horiz-adv-x="1593" d="M29 1016h213l231 -707l240 707h168l239 -707l232 707h213l-340 -1020h-195l-233 684l-234 -684h-194z" />
<glyph unicode="x" horiz-adv-x="1196" d="M78 0l364 498l-364 520h254l266 -385l266 385h256l-364 -520l364 -498h-256l-266 367l-266 -367h-254z" />
<glyph unicode="y" horiz-adv-x="1173" d="M29 1018h237l316 -735l327 735h238l-672 -1510h-237l229 517z" />
<glyph unicode="z" horiz-adv-x="1054" d="M82 0v141l604 699h-588v176h850v-144l-604 -696h629v-176h-891z" />
<glyph unicode="{" horiz-adv-x="874" d="M68 594v160l53 16q160 35 160 152v333q0 119 76 191q77 72 202 72h217v-181h-192q-43 0 -70 -28q-27 -29 -27 -74v-338q0 -163 -137 -223q137 -57 137 -223v-338q0 -46 27 -73q28 -28 70 -28h192v-180h-217q-126 0 -203 71q-75 69 -75 189v334q0 122 -160 152z" />
<glyph unicode="|" horiz-adv-x="528" d="M162 -147v1665h207v-1665h-207z" />
<glyph unicode="}" horiz-adv-x="874" d="M98 12h193q41 0 69 28q27 27 27 73v338q0 166 137 223q-137 60 -137 223v338q0 45 -27 74q-27 28 -69 28h-193v181h217q125 0 202 -72t77 -191v-333q0 -117 160 -152l53 -16v-160l-53 -16q-160 -30 -160 -152v-334q0 -119 -76 -189q-77 -71 -203 -71h-217v180z" />
<glyph unicode="~" horiz-adv-x="999" d="M96 479q0 149 74 217t170 68q83 0 169 -53q88 -54 128 -54q44 0 68 30q24 31 20 79h180q0 -154 -78 -223q-79 -70 -176 -70q-86 0 -169 53q-85 54 -122 54q-45 0 -73 -28t-23 -73h-168z" />
<glyph unicode="&#xa1;" horiz-adv-x="571" d="M152 911q0 56 37 93q36 36 96 36q59 0 96 -36q39 -38 39 -93q0 -53 -39 -92t-96 -39q-59 0 -96 39q-37 38 -37 92zM170 -276l8 882h217l8 -882v-64h-233v64z" />
<glyph unicode="&#xa2;" horiz-adv-x="1181" d="M74 508q0 206 124 349q125 144 310 177v256h180v-252q151 -21 262 -113q112 -93 156 -237l-205 -59q-46 178 -221 213v-668q166 33 229 207l197 -51q-39 -143 -153 -238q-113 -94 -265 -115v-243h-180v246q-188 34 -311 178t-123 350zM283 508q0 -126 63 -211 q64 -87 168 -117v656q-104 -28 -168 -118q-63 -88 -63 -210z" />
<glyph unicode="&#xa3;" horiz-adv-x="1310" d="M98 0v135l174 43v344h-174v199h174v209q0 211 130 341t346 130q210 0 336 -128q127 -129 139 -341l-207 -41q-10 145 -81 222t-187 77t-186 -72q-70 -71 -70 -188v-209h413v-199h-413v-323h733v-199h-1127z" />
<glyph unicode="&#xa5;" horiz-adv-x="1388" d="M51 1372h244l395 -647l395 647h252l-448 -704h293v-164h-381v-129h381v-164h-381v-211h-219v211h-373v164h373v129h-373v164h285z" />
<glyph unicode="&#xa7;" horiz-adv-x="1095" d="M55 618q0 185 172 273q-65 77 -65 186q0 154 107 239t280 85q189 0 298 -99t114 -260l-191 -34q-1 110 -59 168q-57 57 -152 57q-84 0 -137 -44t-53 -116q0 -96 125 -149l282 -123q130 -52 190 -126q58 -71 58 -183q0 -191 -170 -275q64 -79 64 -186q0 -151 -109 -237 q-107 -85 -281 -85q-198 0 -311 101q-112 100 -111 266l185 35q12 -236 227 -236q84 0 137 44q54 45 54 116q0 94 -123 151l-283 123q-129 52 -189 126q-59 73 -59 183zM250 631q0 -49 31 -88q29 -36 110 -76l287 -129l31 -14q118 60 118 155q0 49 -30 87q-29 37 -109 75 l-289 131l-34 16q-115 -53 -115 -157z" />
<glyph unicode="&#xa8;" horiz-adv-x="1228" d="M268 1298q0 54 39 94t96 40q58 0 97 -40t39 -94q0 -56 -38 -94q-37 -37 -98 -37q-60 0 -97 37q-38 38 -38 94zM692 1298q0 54 39 94t96 40q58 0 97 -40q39 -41 39 -94q0 -56 -38 -94q-37 -37 -98 -37q-60 0 -97 37q-38 38 -38 94z" />
<glyph unicode="&#xa9;" horiz-adv-x="1568" d="M63 682q0 308 209 514q208 205 508 205q297 0 505 -205t208 -514q0 -306 -208 -508q-209 -203 -505 -203q-299 0 -508 203t-209 508zM170 684q0 -264 178 -439t432 -175q253 0 429 175q177 175 177 439q0 266 -177 443q-178 178 -429 178q-252 0 -432 -178 q-178 -177 -178 -443zM399 684q0 169 115 278q113 107 277 107q149 0 249 -79q101 -80 119 -197l-143 -31q-21 78 -82 123t-143 45q-105 0 -171 -69q-67 -70 -67 -177q0 -106 68 -176t170 -70q82 0 146 47q62 46 77 131l143 -24q-16 -128 -117 -211q-100 -82 -249 -82 q-163 0 -277 108q-115 109 -115 277z" />
<glyph unicode="&#xaa;" horiz-adv-x="794" d="M96 893q0 91 77 148t206 57h176v26q0 57 -35 94q-34 35 -96 35q-116 0 -145 -114l-144 30q23 104 97 156q76 53 182 53q134 0 217 -66q82 -66 82 -196v-418h-158v60q-79 -76 -215 -76q-111 0 -177 57q-67 58 -67 154zM254 895q0 -45 33 -71q32 -25 86 -25q81 0 131 43 q51 43 51 110v39h-162q-64 0 -101 -25q-38 -26 -38 -71z" />
<glyph unicode="&#xab;" horiz-adv-x="907" d="M51 537l240 364h213l-240 -364l240 -365h-213zM406 537l239 364h211l-240 -364l240 -365h-211z" />
<glyph unicode="&#xad;" horiz-adv-x="913" d="M123 430v184h668v-184h-668z" />
<glyph unicode="&#xae;" horiz-adv-x="1024" d="M102 989q0 178 119 295t291 117t291 -117t119 -295q0 -176 -119 -293q-117 -116 -291 -116t-291 116q-119 117 -119 293zM174 989q0 -145 99 -244q98 -98 239 -98q143 0 241 98q99 99 99 244q0 147 -99 246q-98 98 -241 98q-141 0 -239 -98q-99 -99 -99 -246zM365 809 v383h172q70 0 111 -34q42 -34 42 -91q0 -99 -104 -123l125 -135h-86l-119 129h-72v-129h-69zM434 999h103q35 0 59 19q22 18 22 47q0 28 -22 46q-21 17 -59 17h-103v-129z" />
<glyph unicode="&#xaf;" horiz-adv-x="1228" d="M307 1184v174h617v-174h-617z" />
<glyph unicode="&#xb0;" horiz-adv-x="843" d="M127 1114q0 128 87 207q88 80 210 80t208 -80q85 -79 85 -207q0 -127 -86 -207t-207 -80q-122 0 -210 80q-87 79 -87 207zM274 1114q0 -68 45 -108q46 -41 105 -41q58 0 102 41q43 40 43 108t-44 110t-101 42q-60 0 -105 -42t-45 -110z" />
<glyph unicode="&#xb1;" horiz-adv-x="1187" d="M133 0v186h922v-186h-922zM133 674v186h367v352h188v-352h367v-186h-367v-322h-188v322h-367z" />
<glyph unicode="&#xb4;" horiz-adv-x="1228" d="M483 1161l150 291h250l-217 -291h-183z" />
<glyph unicode="&#xb6;" horiz-adv-x="1183" d="M41 999q0 182 107 277q108 96 292 96h297v-1372h-166v612h-102q-184 0 -307 106q-121 105 -121 281zM858 0v1372h166v-1372h-166z" />
<glyph unicode="&#xb7;" horiz-adv-x="452" d="M92 535q0 53 39 91q40 38 96 38q58 0 96 -38q37 -37 37 -91q0 -56 -37 -93q-36 -36 -96 -36q-59 0 -96 36q-39 38 -39 93z" />
<glyph unicode="&#xb8;" horiz-adv-x="1228" d="M401 -338l201 338h160l-133 -338h-228z" />
<glyph unicode="&#xba;" horiz-adv-x="884" d="M84 1030q0 154 104 251t252 97q152 0 256 -97q105 -97 105 -251t-105 -251q-104 -97 -256 -97q-148 0 -252 97t-104 251zM244 1030q0 -88 58 -146q59 -59 138 -59q83 0 144 59q59 58 59 146q0 89 -59 147t-144 58q-80 0 -138 -58t-58 -147z" />
<glyph unicode="&#xbb;" horiz-adv-x="907" d="M51 172l240 365l-240 364h213l240 -364l-240 -365h-213zM406 172l239 365l-239 364h210l240 -364l-240 -365h-210z" />
<glyph unicode="&#xbc;" horiz-adv-x="1474" d="M45 1063v168l215 141h102v-768h-157v559zM147 0l1016 1372h146l-1016 -1372h-146zM758 156v143l370 467h183v-481h110v-129h-110v-158h-148v158h-405zM909 285h254v317z" />
<glyph unicode="&#xbd;" horiz-adv-x="1656" d="M45 1063v168l215 141h102v-768h-157v559zM131 0l1016 1372h145l-1016 -1372h-145zM1012 0v104l291 246q72 62 99 99q28 39 28 86q0 53 -36 85q-35 31 -94 31q-65 0 -102 -43q-36 -42 -41 -116l-135 30q0 118 76 190t202 72q127 0 205 -66t78 -181q0 -80 -45 -143 q-42 -59 -137 -140l-139 -117h321v-137h-571z" />
<glyph unicode="&#xbe;" horiz-adv-x="1652" d="M55 852l133 33q5 -74 49 -115t115 -41q64 0 102 32t38 83q0 50 -38 77t-100 27h-78v113h68q60 0 98 26q39 27 39 72q0 47 -37 77q-38 30 -96 30q-66 0 -106 -38q-39 -38 -41 -108l-138 33q7 110 85 175q77 65 198 65q123 0 201 -66t78 -164q0 -107 -105 -153 q119 -53 119 -170q0 -104 -81 -173t-208 -69q-125 0 -208 69t-87 185zM315 0l1016 1372h146l-1016 -1372h-146zM934 156v143l371 467h182v-481h110v-129h-110v-158h-148v158h-405zM1085 285h254v317z" />
<glyph unicode="&#xbf;" horiz-adv-x="1081" d="M59 70q0 159 109 265q108 105 287 126v135h196v-301h-121q-114 0 -189 -63t-75 -162q0 -111 72 -180q71 -68 186 -68q121 0 197 76q75 75 90 204l205 -41q-10 -179 -148 -304q-136 -124 -344 -124q-210 0 -337 121q-128 122 -128 316zM422 911q0 55 38 93q36 36 95 36 t96 -36q39 -38 39 -93q0 -53 -39 -92t-96 -39t-95 39q-38 40 -38 92z" />
<glyph unicode="&#xc0;" horiz-adv-x="1433" d="M10 0l604 1372h205l604 -1372h-237l-135 319h-668l-135 -319h-238zM408 1808h249l150 -290h-182zM469 520h496l-248 584z" />
<glyph unicode="&#xc1;" horiz-adv-x="1433" d="M10 0l604 1372h205l604 -1372h-237l-135 319h-668l-135 -319h-238zM469 520h496l-248 584zM635 1518l149 290h250l-217 -290h-182z" />
<glyph unicode="&#xc2;" horiz-adv-x="1433" d="M10 0l604 1372h205l604 -1372h-237l-135 319h-668l-135 -319h-238zM381 1501l235 297h203l238 -297h-215l-123 158l-125 -158h-213zM469 520h496l-248 584z" />
<glyph unicode="&#xc3;" horiz-adv-x="1433" d="M10 0l604 1372h205l604 -1372h-237l-135 319h-668l-135 -319h-238zM397 1563q0 124 60 181q59 56 139 56q69 0 140 -44t112 -44q29 0 48 25q17 23 17 63h144q0 -127 -58 -185q-56 -56 -139 -56q-73 0 -141 43t-109 43q-31 0 -49 -23q-18 -22 -18 -59h-146zM469 520h496 l-248 584z" />
<glyph unicode="&#xc4;" horiz-adv-x="1433" d="M10 0l604 1372h205l604 -1372h-237l-135 319h-668l-135 -319h-238zM371 1655q0 53 39 93t96 40t96 -40t39 -93q0 -56 -38 -94q-37 -37 -97 -37t-97 37q-38 38 -38 94zM469 520h496l-248 584zM795 1655q0 53 39 93t96 40t96 -40t39 -93q0 -56 -38 -94q-37 -37 -97 -37 t-97 37q-38 38 -38 94z" />
<glyph unicode="&#xc5;" horiz-adv-x="1433" d="M10 0l604 1372h205l604 -1372h-237l-135 319h-668l-135 -319h-238zM469 520h496l-248 584zM489 1698q0 91 67 156t161 65q95 0 162 -65q65 -64 65 -156q0 -94 -65 -156q-66 -63 -162 -63t-161 64q-67 65 -67 155zM616 1698q0 -39 29 -68q28 -28 72 -28q43 0 71 28 q29 29 29 68q0 41 -29 68q-30 28 -71 28q-42 0 -72 -28q-29 -27 -29 -68z" />
<glyph unicode="&#xc6;" horiz-adv-x="2131" d="M10 0l953 1372h1079v-198h-801v-388h739v-196h-739v-391h803v-199h-1022v285h-565l-193 -285h-254zM590 483h432v641z" />
<glyph unicode="&#xc7;" horiz-adv-x="1576" d="M98 686q0 299 208 507t507 208q244 0 426 -133q183 -133 240 -359l-213 -61q-45 170 -166 258t-287 88q-209 0 -351 -146q-143 -148 -143 -362q0 -213 143 -361q142 -147 351 -147q166 0 287 88t166 258l213 -45q-54 -223 -217 -356t-392 -150l-122 -311h-228l189 318 q-264 38 -437 235q-174 198 -174 471z" />
<glyph unicode="&#xc8;" horiz-adv-x="1302" d="M162 0v1372h1020v-198h-801v-388h739v-196h-739v-391h803v-199h-1022zM385 1808h250l149 -290h-182z" />
<glyph unicode="&#xc9;" horiz-adv-x="1302" d="M162 0v1372h1020v-198h-801v-388h739v-196h-739v-391h803v-199h-1022zM614 1518l150 290h250l-217 -290h-183z" />
<glyph unicode="&#xca;" horiz-adv-x="1302" d="M162 0v1372h1020v-198h-801v-388h739v-196h-739v-391h803v-199h-1022zM360 1501l236 297h203l237 -297h-215l-123 158l-125 -158h-213z" />
<glyph unicode="&#xcb;" horiz-adv-x="1302" d="M162 0v1372h1020v-198h-801v-388h739v-196h-739v-391h803v-199h-1022zM350 1655q0 53 39 93t96 40q58 0 97 -40t39 -93q0 -56 -38 -94q-37 -37 -98 -37q-60 0 -97 37q-38 38 -38 94zM774 1655q0 53 39 93t96 40q58 0 97 -40q38 -39 38 -93q0 -57 -37 -94t-98 -37 q-60 0 -97 37q-38 38 -38 94z" />
<glyph unicode="&#xcc;" horiz-adv-x="917" d="M47 0v199h301v975h-301v198h823v-198h-301v-975h301v-199h-823zM147 1808h250l150 -290h-182z" />
<glyph unicode="&#xcd;" horiz-adv-x="917" d="M47 0v199h301v975h-301v198h823v-198h-301v-975h301v-199h-823zM377 1518l149 290h250l-217 -290h-182z" />
<glyph unicode="&#xce;" horiz-adv-x="917" d="M47 0v199h301v975h-301v198h823v-198h-301v-975h301v-199h-823zM123 1501l235 297h203l238 -297h-215l-123 158l-125 -158h-213z" />
<glyph unicode="&#xcf;" horiz-adv-x="917" d="M47 0v199h301v975h-301v198h823v-198h-301v-975h301v-199h-823zM113 1655q0 53 39 93t96 40t96 -40t39 -93q0 -56 -38 -94q-37 -37 -97 -37t-97 37q-38 38 -38 94zM537 1655q0 54 38 93q39 40 97 40q57 0 96 -40t39 -93q0 -56 -38 -94q-37 -37 -97 -37q-61 0 -98 37 t-37 94z" />
<glyph unicode="&#xd0;" horiz-adv-x="1513" d="M61 590v201h140v581h479q348 0 552 -191q206 -192 206 -495t-206 -495q-204 -191 -552 -191h-479v590h-140zM420 199h260q246 0 390 135t144 352t-144 352q-145 136 -390 136h-260v-383h303v-201h-303v-391z" />
<glyph unicode="&#xd1;" horiz-adv-x="1558" d="M162 0v1372h186l828 -1001v1001h221v-1372h-187l-829 985v-985h-219zM471 1563q0 125 59 181t140 56q69 0 140 -44t112 -44q29 0 48 25q17 23 17 63h143q0 -128 -57 -185q-56 -56 -139 -56q-73 0 -141 43t-109 43q-31 0 -49 -23q-19 -24 -19 -59h-145z" />
<glyph unicode="&#xd2;" d="M98 684q0 300 207 509q207 208 508 208q300 0 509 -209q208 -208 208 -508q0 -299 -208 -506t-509 -207t-508 207t-207 506zM319 684q0 -214 143 -360t351 -146t352 146t144 360q0 217 -144 364q-143 146 -352 146t-351 -146q-143 -148 -143 -364zM504 1808h250l149 -290 h-182z" />
<glyph unicode="&#xd3;" d="M98 684q0 300 207 509q207 208 508 208q300 0 509 -209q208 -208 208 -508q0 -299 -208 -506t-509 -207t-508 207t-207 506zM319 684q0 -214 143 -360t351 -146t352 146t144 360q0 217 -144 364q-143 146 -352 146t-351 -146q-143 -148 -143 -364zM731 1518l150 290h249 l-217 -290h-182z" />
<glyph unicode="&#xd4;" d="M98 684q0 300 207 509q207 208 508 208q300 0 509 -209q208 -208 208 -508q0 -299 -208 -506t-509 -207t-508 207t-207 506zM319 684q0 -214 143 -360t351 -146t352 146t144 360q0 217 -144 364q-143 146 -352 146t-351 -146q-143 -148 -143 -364zM477 1501l236 297h202 l238 -297h-215l-123 158l-125 -158h-213z" />
<glyph unicode="&#xd5;" d="M98 684q0 300 207 509q207 208 508 208q300 0 509 -209q208 -208 208 -508q0 -299 -208 -506t-509 -207t-508 207t-207 506zM319 684q0 -214 143 -360t351 -146t352 146t144 360q0 217 -144 364q-143 146 -352 146t-351 -146q-143 -148 -143 -364zM494 1563q0 125 59 181 t139 56q70 0 141 -44t111 -44q29 0 48 25q18 24 18 63h143q0 -128 -57 -185q-56 -56 -140 -56q-73 0 -141 43t-108 43q-32 0 -50 -23q-18 -22 -18 -59h-145z" />
<glyph unicode="&#xd6;" d="M98 684q0 300 207 509q207 208 508 208q300 0 509 -209q208 -208 208 -508q0 -299 -208 -506t-509 -207t-508 207t-207 506zM319 684q0 -214 143 -360t351 -146t352 146t144 360q0 217 -144 364q-143 146 -352 146t-351 -146q-143 -148 -143 -364zM467 1655q0 53 39 93 t96 40t96 -40t39 -93q0 -56 -38 -94q-37 -37 -97 -37t-97 37q-38 38 -38 94zM891 1655q0 53 39 93t96 40t96 -40t39 -93q0 -56 -38 -94q-37 -37 -97 -37t-97 37q-38 38 -38 94z" />
<glyph unicode="&#xd7;" horiz-adv-x="1060" d="M113 344l282 281l-282 282l135 135l282 -282l283 282l135 -135l-282 -282l282 -281l-135 -137l-283 282l-282 -282z" />
<glyph unicode="&#xd8;" d="M98 684q0 300 207 509q207 208 508 208q251 0 449 -154l118 119l127 -127l-121 -121q144 -192 144 -434q0 -299 -208 -506t-509 -207q-243 0 -430 142l-137 -138l-127 129l133 134q-154 198 -154 446zM319 684q0 -157 87 -293l704 705q-129 98 -297 98q-209 0 -351 -146 q-143 -148 -143 -364zM532 264q125 -86 281 -86q208 0 352 146t144 360q0 156 -78 279z" />
<glyph unicode="&#xd9;" horiz-adv-x="1466" d="M147 606v766h220v-766q0 -193 102 -308q102 -116 270 -116q162 0 261 117q100 118 100 307v766h219v-766q0 -283 -160 -460q-159 -175 -420 -175q-266 0 -429 175t-163 460zM422 1808h250l149 -290h-182z" />
<glyph unicode="&#xda;" horiz-adv-x="1466" d="M147 606v766h220v-766q0 -193 102 -308q102 -116 270 -116q162 0 261 117q100 118 100 307v766h219v-766q0 -283 -160 -460q-159 -175 -420 -175q-266 0 -429 175t-163 460zM651 1518l150 290h250l-217 -290h-183z" />
<glyph unicode="&#xdb;" horiz-adv-x="1466" d="M147 606v766h220v-766q0 -193 102 -308q102 -116 270 -116q162 0 261 117q100 118 100 307v766h219v-766q0 -283 -160 -460q-159 -175 -420 -175q-266 0 -429 175t-163 460zM397 1501l236 297h203l237 -297h-215l-123 158l-125 -158h-213z" />
<glyph unicode="&#xdc;" horiz-adv-x="1466" d="M147 606v766h220v-766q0 -193 102 -308q102 -116 270 -116q162 0 261 117q100 118 100 307v766h219v-766q0 -283 -160 -460q-159 -175 -420 -175q-266 0 -429 175t-163 460zM387 1655q0 53 39 93t96 40t96 -40t39 -93q0 -57 -37 -94t-98 -37q-60 0 -97 37q-38 38 -38 94z M811 1655q0 53 39 93t96 40t96 -40t39 -93q0 -56 -38 -94q-37 -37 -97 -37t-97 37q-38 38 -38 94z" />
<glyph unicode="&#xdd;" horiz-adv-x="1394" d="M29 1372h243l422 -688l420 688h252l-563 -913v-459h-219v455zM614 1518l150 290h250l-217 -290h-183z" />
<glyph unicode="&#xde;" horiz-adv-x="1308" d="M162 0v1372h219v-235h367q217 0 351 -125t134 -326t-134 -326q-133 -124 -351 -124h-367v-236h-219zM381 436h356q123 0 201 70q76 69 76 180q0 113 -76 182q-78 70 -201 70h-356v-502z" />
<glyph unicode="&#xdf;" horiz-adv-x="1345" d="M162 0v971q0 243 146 390q147 148 384 148q214 0 345 -115q132 -116 132 -294q0 -108 -47 -191q-46 -81 -133 -121q133 -38 204 -133q73 -97 73 -241q0 -184 -123 -306q-124 -122 -326 -122q-153 0 -305 45l29 176q146 -41 260 -41q126 0 205 73q77 71 77 175 q0 127 -97 197q-98 71 -269 71h-88v176h57q126 0 204 61q77 60 77 158q0 111 -75 178q-76 68 -200 68q-143 0 -230 -91q-87 -92 -87 -247v-985h-213z" />
<glyph unicode="&#xe0;" horiz-adv-x="1118" d="M74 293q0 145 107 233t300 88h318v31q0 99 -60 156t-157 57q-213 0 -248 -176l-203 43q27 143 148 231t290 88q200 0 316 -100t116 -282v-662h-202v117q-131 -146 -346 -146q-169 0 -275 89q-104 88 -104 233zM260 1452h250l149 -291h-182zM279 297q0 -71 56 -112 q57 -42 150 -42q130 0 222 80t92 195v33h-322q-93 0 -145 -42q-53 -42 -53 -112z" />
<glyph unicode="&#xe1;" horiz-adv-x="1118" d="M74 293q0 145 107 233t300 88h318v31q0 99 -60 156t-157 57q-213 0 -248 -176l-203 43q27 143 148 231t290 88q200 0 316 -100t116 -282v-662h-202v117q-131 -146 -346 -146q-169 0 -275 89q-104 88 -104 233zM279 297q0 -71 56 -112q57 -42 150 -42q130 0 222 80t92 195 v33h-322q-93 0 -145 -42q-53 -42 -53 -112zM489 1161l150 291h250l-217 -291h-183z" />
<glyph unicode="&#xe2;" horiz-adv-x="1118" d="M74 293q0 145 107 233t300 88h318v31q0 99 -60 156t-157 57q-213 0 -248 -176l-203 43q27 143 148 231t290 88q200 0 316 -100t116 -282v-662h-202v117q-131 -146 -346 -146q-169 0 -275 89q-104 88 -104 233zM236 1145l235 297h203l237 -297h-215l-123 158l-124 -158 h-213zM279 297q0 -71 56 -112q57 -42 150 -42q130 0 222 80t92 195v33h-322q-93 0 -145 -42q-53 -42 -53 -112z" />
<glyph unicode="&#xe3;" horiz-adv-x="1118" d="M74 293q0 145 107 233t300 88h318v31q0 99 -60 156t-157 57q-213 0 -248 -176l-203 43q27 143 148 231t290 88q200 0 316 -100t116 -282v-662h-202v117q-131 -146 -346 -146q-169 0 -275 89q-104 88 -104 233zM250 1206q0 126 59 182t140 56q69 0 140 -44t111 -44 q31 0 49 24q17 23 17 64h143q0 -129 -57 -186q-56 -56 -139 -56q-74 0 -142 43t-108 43q-31 0 -49 -22q-19 -24 -19 -60h-145zM279 297q0 -71 56 -112q57 -42 150 -42q130 0 222 80t92 195v33h-322q-93 0 -145 -42q-53 -42 -53 -112z" />
<glyph unicode="&#xe4;" horiz-adv-x="1118" d="M74 293q0 145 107 233t300 88h318v31q0 99 -60 156t-157 57q-213 0 -248 -176l-203 43q27 143 148 231t290 88q200 0 316 -100t116 -282v-662h-202v117q-131 -146 -346 -146q-169 0 -275 89q-104 88 -104 233zM225 1298q0 54 39 94t96 40q58 0 97 -40t39 -94 q0 -56 -38 -94q-37 -37 -98 -37q-60 0 -97 37q-38 38 -38 94zM279 297q0 -71 56 -112q57 -42 150 -42q130 0 222 80t92 195v33h-322q-93 0 -145 -42q-53 -42 -53 -112zM649 1298q0 54 39 94t96 40q58 0 97 -40q39 -41 39 -94q0 -56 -38 -94q-37 -37 -98 -37q-60 0 -97 37 q-38 38 -38 94z" />
<glyph unicode="&#xe5;" horiz-adv-x="1118" d="M74 293q0 145 107 233t300 88h318v31q0 99 -60 156t-157 57q-213 0 -248 -176l-203 43q27 143 148 231t290 88q200 0 316 -100t116 -282v-662h-202v117q-131 -146 -346 -146q-169 0 -275 89q-104 88 -104 233zM279 297q0 -71 56 -112q57 -42 150 -42q130 0 222 80t92 195 v33h-322q-93 0 -145 -42q-53 -42 -53 -112zM344 1339q0 92 67 157t160 65q95 0 162 -65q66 -64 66 -157q0 -92 -66 -155q-67 -64 -162 -64q-93 0 -160 65t-67 154zM471 1339q0 -38 29 -67t71 -29q43 0 72 29t29 67q0 42 -29 69q-30 28 -72 28q-41 0 -71 -28q-29 -27 -29 -69 z" />
<glyph unicode="&#xe6;" horiz-adv-x="1871" d="M74 289q0 140 107 220q108 81 296 81h322v61q0 96 -64 155q-62 58 -168 58q-101 0 -164 -48t-75 -134l-195 43q17 142 135 230q119 89 303 89q241 0 357 -161q143 161 366 161q215 0 358 -149q145 -151 146 -385v-74h-803q22 -133 104 -207q80 -73 206 -73q79 0 157 42 q79 42 119 132l191 -41q-39 -141 -173 -230q-133 -88 -299 -88q-267 0 -411 205q-62 -91 -177 -148q-114 -57 -251 -57q-187 0 -287 90t-100 228zM279 295q0 -68 55 -110q56 -42 151 -42q126 0 220 79t94 192v22h-322q-93 0 -146 -38q-52 -37 -52 -103zM995 590h588 q-21 132 -97 202t-183 70q-118 0 -204 -71q-88 -72 -104 -201z" />
<glyph unicode="&#xe7;" horiz-adv-x="1181" d="M74 508q0 234 156 385q155 151 380 151q175 0 311 -97q135 -97 185 -259l-205 -59q-29 109 -106 164t-185 55q-141 0 -234 -95t-93 -245q0 -153 92 -247q91 -93 235 -93q104 0 184 54q77 52 115 159l197 -51q-39 -143 -153 -238q-114 -94 -267 -117l-123 -313h-227 l188 315q-192 30 -322 176q-128 145 -128 355z" />
<glyph unicode="&#xe8;" horiz-adv-x="1181" d="M74 506q0 239 152 388q153 150 374 150q206 0 353 -144t155 -370v-73h-823q15 -138 102 -219q88 -82 205 -82q210 0 299 176l190 -41q-62 -158 -189 -239q-128 -81 -300 -81q-213 0 -366 150q-152 149 -152 385zM291 608h598q-24 121 -103 185q-78 63 -186 63t-197 -65 q-89 -66 -112 -183zM291 1452h250l149 -291h-182z" />
<glyph unicode="&#xe9;" horiz-adv-x="1181" d="M74 506q0 239 152 388q153 150 374 150q206 0 353 -144t155 -370v-73h-823q15 -138 102 -219q88 -82 205 -82q210 0 299 176l190 -41q-62 -158 -189 -239q-128 -81 -300 -81q-213 0 -366 150q-152 149 -152 385zM291 608h598q-24 121 -103 185q-78 63 -186 63t-197 -65 q-89 -66 -112 -183zM520 1161l150 291h250l-218 -291h-182z" />
<glyph unicode="&#xea;" horiz-adv-x="1181" d="M74 506q0 239 152 388q153 150 374 150q206 0 353 -144t155 -370v-73h-823q15 -138 102 -219q88 -82 205 -82q210 0 299 176l190 -41q-62 -158 -189 -239q-128 -81 -300 -81q-213 0 -366 150q-152 149 -152 385zM266 1145l236 297h203l237 -297h-215l-123 158l-125 -158 h-213zM291 608h598q-24 121 -103 185q-78 63 -186 63t-197 -65q-89 -66 -112 -183z" />
<glyph unicode="&#xeb;" horiz-adv-x="1181" d="M74 506q0 239 152 388q153 150 374 150q206 0 353 -144t155 -370v-73h-823q15 -138 102 -219q88 -82 205 -82q210 0 299 176l190 -41q-62 -158 -189 -239q-128 -81 -300 -81q-213 0 -366 150q-152 149 -152 385zM256 1298q0 54 39 94t96 40t96 -40t39 -94q0 -56 -38 -94 q-37 -37 -97 -37t-97 37q-38 38 -38 94zM291 608h598q-24 121 -103 185q-78 63 -186 63t-197 -65q-89 -66 -112 -183zM680 1298q0 54 39 94t96 40t96 -40q39 -41 39 -94q0 -56 -38 -94q-37 -37 -97 -37t-97 37q-38 38 -38 94z" />
<glyph unicode="&#xec;" horiz-adv-x="587" d="M-16 1452h249l150 -291h-182zM188 0v1016h213v-1016h-213z" />
<glyph unicode="&#xed;" horiz-adv-x="587" d="M188 0v1016h213v-1016h-213zM213 1161l149 291h250l-217 -291h-182z" />
<glyph unicode="&#xee;" horiz-adv-x="587" d="M-41 1145l236 297h202l238 -297h-215l-123 158l-125 -158h-213zM188 0v1016h213v-1016h-213z" />
<glyph unicode="&#xef;" horiz-adv-x="587" d="M-51 1298q0 54 39 94t96 40t96 -40t39 -94q0 -56 -38 -94q-37 -37 -97 -37t-97 37q-38 38 -38 94zM188 0v1016h213v-1016h-213zM373 1298q0 54 39 94t96 40t96 -40t39 -94q0 -56 -38 -94q-37 -37 -97 -37t-97 37q-38 38 -38 94z" />
<glyph unicode="&#xf0;" horiz-adv-x="1241" d="M74 508q0 237 146 386q147 150 368 150q104 0 192 -49q-80 113 -172 191l-276 -117l-62 148l187 79q-127 77 -283 136v43h340q83 -46 148 -93l221 95l61 -152l-143 -59q159 -155 263 -355q101 -195 101 -397q0 -254 -160 -398q-162 -145 -378 -145q-228 0 -391 151 q-162 150 -162 386zM283 508q0 -151 100 -250q99 -98 242 -98q152 0 241 108q88 107 88 246q0 146 -98 244t-233 98q-146 0 -243 -97t-97 -251z" />
<glyph unicode="&#xf1;" horiz-adv-x="1269" d="M162 0v1016h213v-125q129 153 352 153q183 0 295 -119q113 -121 113 -311v-614h-215v571q0 123 -67 201q-66 76 -175 76q-141 0 -222 -96t-81 -283v-469h-213zM328 1206q0 126 59 182t139 56q70 0 141 -44t111 -44q30 0 48 24t18 64h143q0 -129 -57 -186 q-56 -56 -139 -56q-74 0 -142 43t-108 43q-31 0 -49 -22q-19 -24 -19 -60h-145z" />
<glyph unicode="&#xf2;" horiz-adv-x="1239" d="M74 508q0 234 158 382t389 148t386 -148q156 -148 156 -382q0 -233 -157 -383q-158 -150 -385 -150q-230 0 -389 150q-158 149 -158 383zM283 508q0 -154 99 -251q98 -97 239 -97q135 0 235 97t100 251t-100 251t-235 97q-141 0 -239 -97q-99 -97 -99 -251zM309 1458h250 l150 -291h-183z" />
<glyph unicode="&#xf3;" horiz-adv-x="1239" d="M74 508q0 234 158 382t389 148t386 -148q156 -148 156 -382q0 -233 -157 -383q-158 -150 -385 -150q-230 0 -389 150q-158 149 -158 383zM283 508q0 -154 99 -251q98 -97 239 -97q135 0 235 97t100 251t-100 251t-235 97q-141 0 -239 -97q-99 -97 -99 -251zM539 1167 l149 291h250l-217 -291h-182z" />
<glyph unicode="&#xf4;" horiz-adv-x="1239" d="M74 508q0 234 158 382t389 148t386 -148q156 -148 156 -382q0 -233 -157 -383q-158 -150 -385 -150q-230 0 -389 150q-158 149 -158 383zM283 508q0 -154 99 -251q98 -97 239 -97q135 0 235 97t100 251t-100 251t-235 97q-141 0 -239 -97q-99 -97 -99 -251zM285 1151 l235 297h203l238 -297h-216l-122 158l-125 -158h-213z" />
<glyph unicode="&#xf5;" horiz-adv-x="1239" d="M74 508q0 234 158 382t389 148t386 -148q156 -148 156 -382q0 -233 -157 -383q-158 -150 -385 -150q-230 0 -389 150q-158 149 -158 383zM283 508q0 -154 99 -251q98 -97 239 -97q135 0 235 97t100 251t-100 251t-235 97q-141 0 -239 -97q-99 -97 -99 -251zM301 1210 q0 126 59 182t140 56q69 0 140 -44t112 -44q30 0 48 24q17 23 17 64h144q0 -127 -58 -185q-57 -57 -139 -57q-73 0 -141 43t-109 43q-31 0 -49 -22q-19 -24 -19 -60h-145z" />
<glyph unicode="&#xf6;" horiz-adv-x="1239" d="M74 508q0 234 158 382t389 148t386 -148q156 -148 156 -382q0 -233 -157 -383q-158 -150 -385 -150q-230 0 -389 150q-158 149 -158 383zM274 1305q0 53 39 93t97 40q57 0 96 -40t39 -93q0 -57 -38 -95q-36 -36 -97 -36q-62 0 -98 36q-38 38 -38 95zM283 508 q0 -154 99 -251q98 -97 239 -97q135 0 235 97t100 251t-100 251t-235 97q-141 0 -239 -97q-99 -97 -99 -251zM698 1305q0 53 39 93t97 40q57 0 96 -40t39 -93q0 -57 -38 -95q-36 -36 -97 -36q-62 0 -98 36q-38 38 -38 95z" />
<glyph unicode="&#xf7;" horiz-adv-x="1187" d="M133 530v189h922v-189h-922zM453 262q0 54 37 92q38 39 96 39q57 0 96 -39t39 -92q0 -54 -39 -92q-38 -37 -96 -37q-59 0 -96 37t-37 92zM453 987q0 54 37 92q38 39 96 39q57 0 96 -39t39 -92t-39 -91q-40 -38 -96 -38q-59 0 -96 37t-37 92z" />
<glyph unicode="&#xf8;" horiz-adv-x="1234" d="M74 508q0 234 158 382t389 148q185 0 323 -98l107 107l106 -107l-102 -102q108 -141 108 -330q0 -233 -157 -383q-158 -150 -385 -150q-182 0 -328 101l-107 -107l-106 107l104 104q-110 135 -110 328zM283 508q0 -103 47 -182l475 475q-88 55 -184 55q-141 0 -239 -97 q-99 -97 -99 -251zM432 215q88 -55 189 -55q135 0 235 97t100 251q0 99 -49 184z" />
<glyph unicode="&#xf9;" horiz-adv-x="1269" d="M137 403v613h213v-570q0 -123 67 -201q66 -77 177 -77q142 0 221 96q80 97 80 283v469h213v-1016h-213v125q-130 -154 -350 -154q-185 0 -296 120q-112 121 -112 312zM315 1452h250l150 -291h-183z" />
<glyph unicode="&#xfa;" horiz-adv-x="1269" d="M137 403v613h213v-570q0 -123 67 -201q66 -77 177 -77q142 0 221 96q80 97 80 283v469h213v-1016h-213v125q-130 -154 -350 -154q-185 0 -296 120q-112 121 -112 312zM545 1161l149 291h250l-217 -291h-182z" />
<glyph unicode="&#xfb;" horiz-adv-x="1269" d="M137 403v613h213v-570q0 -123 67 -201q66 -77 177 -77q142 0 221 96q80 97 80 283v469h213v-1016h-213v125q-130 -154 -350 -154q-185 0 -296 120q-112 121 -112 312zM291 1145l235 297h203l238 -297h-215l-123 158l-125 -158h-213z" />
<glyph unicode="&#xfc;" horiz-adv-x="1269" d="M137 403v613h213v-570q0 -123 67 -201q66 -77 177 -77q142 0 221 96q80 97 80 283v469h213v-1016h-213v125q-130 -154 -350 -154q-185 0 -296 120q-112 121 -112 312zM281 1298q0 55 38 94q39 40 97 40q57 0 96 -40t39 -94q0 -56 -38 -94q-37 -37 -97 -37q-61 0 -98 37 t-37 94zM705 1298q0 55 38 94q39 40 97 40q57 0 96 -40q39 -41 39 -94q0 -56 -38 -94q-37 -37 -97 -37q-61 0 -98 37t-37 94z" />
<glyph unicode="&#xfd;" horiz-adv-x="1173" d="M29 1018h237l316 -735l327 735h238l-672 -1510h-237l229 517zM516 1161l150 291h249l-217 -291h-182z" />
<glyph unicode="&#xfe;" horiz-adv-x="1320" d="M162 -492v1967h213v-584q137 153 368 153q205 0 355 -151q149 -150 149 -385q0 -237 -148 -386q-149 -151 -356 -151q-232 0 -368 154v-617h-213zM375 508q0 -154 100 -251t234 -97q142 0 237 95q94 94 94 253t-94 253q-95 95 -237 95q-134 0 -234 -97t-100 -251z" />
<glyph unicode="&#xff;" horiz-adv-x="1173" d="M29 1018h237l316 -735l327 735h238l-672 -1510h-237l229 517zM252 1298q0 54 39 94t96 40t96 -40t39 -94q0 -56 -38 -94q-37 -37 -97 -37t-97 37q-38 38 -38 94zM676 1298q0 54 39 94t96 40t96 -40q39 -41 39 -94q0 -56 -38 -94q-37 -37 -97 -37t-97 37q-38 38 -38 94z " />
<glyph unicode="&#x152;" horiz-adv-x="2125" d="M98 686q0 302 217 494t574 192h1116v-198h-799v-388h740v-196h-740v-391h803v-199h-1120q-358 0 -574 191q-217 192 -217 495zM319 686q0 -220 153 -353q154 -134 417 -134h96v975h-96q-262 0 -417 -135q-153 -133 -153 -353z" />
<glyph unicode="&#x153;" horiz-adv-x="2064" d="M74 508q0 234 158 382t389 148q133 0 247 -54q116 -55 189 -153q73 103 183 158t243 55q206 0 353 -144t155 -370v-73h-824q15 -137 103 -219t205 -82q210 0 299 176l190 -41q-62 -158 -189 -239t-300 -81q-124 0 -236 56q-111 55 -182 155q-72 -96 -189 -152 q-116 -55 -247 -55q-230 0 -389 150q-158 149 -158 383zM283 508q0 -154 99 -251q98 -97 239 -97q135 0 235 97t100 251t-100 251t-235 97q-141 0 -239 -97q-99 -97 -99 -251zM1174 608h598q-24 121 -103 185q-78 63 -186 63t-197 -65q-89 -66 -112 -183z" />
<glyph unicode="&#x178;" horiz-adv-x="1394" d="M29 1372h243l422 -688l420 688h252l-563 -913v-459h-219v455zM350 1655q0 53 39 93t96 40q58 0 97 -40t39 -93q0 -56 -38 -94q-37 -37 -98 -37q-60 0 -97 37q-38 38 -38 94zM774 1655q0 53 39 93t96 40q58 0 97 -40q38 -39 38 -93q0 -57 -37 -94t-98 -37q-60 0 -97 37 q-38 38 -38 94z" />
<glyph unicode="&#x2c6;" horiz-adv-x="1228" d="M279 1145l235 297h203l237 -297h-215l-123 158l-124 -158h-213z" />
<glyph unicode="&#x2dc;" horiz-adv-x="1228" d="M295 1206q0 126 59 182t140 56q69 0 140 -44t111 -44q31 0 49 24q17 23 17 64h143q0 -129 -57 -186q-56 -56 -139 -56q-74 0 -142 43t-108 43q-31 0 -49 -22q-19 -24 -19 -60h-145z" />
<glyph unicode="&#x2000;" horiz-adv-x="959" />
<glyph unicode="&#x2001;" horiz-adv-x="1919" />
<glyph unicode="&#x2002;" horiz-adv-x="959" />
<glyph unicode="&#x2003;" horiz-adv-x="1919" />
<glyph unicode="&#x2004;" horiz-adv-x="639" />
<glyph unicode="&#x2005;" horiz-adv-x="479" />
<glyph unicode="&#x2006;" horiz-adv-x="319" />
<glyph unicode="&#x2007;" horiz-adv-x="319" />
<glyph unicode="&#x2008;" horiz-adv-x="239" />
<glyph unicode="&#x2009;" horiz-adv-x="383" />
<glyph unicode="&#x200a;" horiz-adv-x="106" />
<glyph unicode="&#x2010;" horiz-adv-x="913" d="M123 430v184h668v-184h-668z" />
<glyph unicode="&#x2011;" horiz-adv-x="913" d="M123 430v184h668v-184h-668z" />
<glyph unicode="&#x2012;" horiz-adv-x="913" d="M123 430v184h668v-184h-668z" />
<glyph unicode="&#x2013;" horiz-adv-x="1269" d="M123 440v164h1024v-164h-1024z" />
<glyph unicode="&#x2014;" horiz-adv-x="2129" d="M123 440v164h1884v-164h-1884z" />
<glyph unicode="&#x2018;" horiz-adv-x="544" d="M84 829v5l215 538h162l-129 -543h-248z" />
<glyph unicode="&#x2019;" horiz-adv-x="544" d="M84 829l129 543h248v-6l-213 -537h-164z" />
<glyph unicode="&#x201a;" horiz-adv-x="544" d="M84 -270l129 544h248v-6l-213 -538h-164z" />
<glyph unicode="&#x201c;" horiz-adv-x="909" d="M84 829v5l215 538h162l-129 -543h-248zM446 829v5l216 538h161l-129 -543h-248z" />
<glyph unicode="&#x201d;" horiz-adv-x="909" d="M84 829l129 543h248v-6l-213 -537h-164zM449 829l129 543h247v-6l-215 -537h-161z" />
<glyph unicode="&#x201e;" horiz-adv-x="909" d="M84 -270l129 544h248v-6l-213 -538h-164zM449 -270l129 544h247v-6l-215 -538h-161z" />
<glyph unicode="&#x2022;" horiz-adv-x="839" d="M92 535q0 129 94 223t234 94q139 0 233 -94q95 -95 95 -223q0 -135 -94 -226q-93 -90 -234 -90q-142 0 -235 90t-93 226z" />
<glyph unicode="&#x2026;" horiz-adv-x="1456" d="M92 123q0 53 39 91q40 38 96 38q58 0 96 -38q37 -37 37 -91q0 -56 -37 -93q-38 -38 -96 -38q-56 0 -96 38q-39 38 -39 93zM594 123q0 53 39 91q40 38 96 38q57 0 95 -38t38 -91q0 -55 -38 -93t-95 -38q-56 0 -96 38q-39 38 -39 93zM1096 123q0 53 39 91q40 38 96 38 q57 0 95 -38t38 -91q0 -55 -38 -93t-95 -38q-56 0 -96 38q-39 38 -39 93z" />
<glyph unicode="&#x202f;" horiz-adv-x="383" />
<glyph unicode="&#x2039;" horiz-adv-x="555" d="M51 537l240 364h213l-240 -364l240 -365h-213z" />
<glyph unicode="&#x203a;" horiz-adv-x="555" d="M51 172l240 365l-240 364h213l240 -364l-240 -365h-213z" />
<glyph unicode="&#x205f;" horiz-adv-x="479" />
<glyph unicode="&#x20ac;" horiz-adv-x="1607" d="M162 457v157h207q-2 30 -2 72q0 38 2 66h-207v155h227q51 226 202 361q149 133 361 133q210 0 357 -129q146 -128 202 -348l-223 -45q-34 154 -125 236q-90 81 -211 81q-118 0 -206 -77q-87 -77 -128 -212h480l-37 -155h-469q-2 -28 -2 -66q0 -42 2 -72h434l-37 -157 h-366q41 -131 127 -205t202 -74q121 0 210 80q88 79 132 238l217 -47q-56 -221 -202 -349q-147 -129 -357 -129q-211 0 -359 130q-150 131 -202 356h-229z" />
<glyph unicode="&#x2122;" horiz-adv-x="1349" d="M74 1266v106h489v-106h-182v-445h-127v445h-180zM641 821v551h137l170 -350l170 350h135v-551h-118v326l-150 -324h-76l-149 324v-326h-119z" />
<glyph unicode="&#x25fc;" horiz-adv-x="1013" d="M0 0v1014h1014v-1014h-1014z" />
</font>
</defs>
</svg>
